<?xml version="1.0" encoding="UTF-8"?>
<svg id="Capa_2" data-name="Capa 2" xmlns="http://www.w3.org/2000/svg" xmlns:xlink="http://www.w3.org/1999/xlink" viewBox="0 0 219.83 219.71">
  <defs>
    <style>
      .cls-1 {
        fill: #114c5a;
      }

      .cls-2 {
        fill: url(#Degradado_sin_nombre_12);
      }
    </style>
    <linearGradient id="Degradado_sin_nombre_12" data-name="Degradado sin nombre 12" x1="1341.12" y1="189.8" x2="820.5" y2="156.02" gradientUnits="userSpaceOnUse">
      <stop offset="0" stop-color="#ffc801"/>
      <stop offset="1" stop-color="#fe9932"/>
    </linearGradient>
  </defs>
  <g id="Capa_1" data-name="Capa 1">
    <g>
      <g>
        <path class="cls-1" d="M183.67,211.92c.73,2.5-.75,5.09-3.25,5.81-8.31,2.38-16.6,2.61-24.87.72-9.77-2.24-18.37-7.08-25.8-14.51-5.34-5.34-9.32-11.22-11.94-17.65-2.62-6.43-3.96-12.96-4-19.59-.05-6.63,1.26-13.18,3.93-19.66,2.67-6.48,6.62-12.34,11.87-17.58,5.34-5.34,11.2-9.29,17.58-11.87,6.38-2.57,12.91-3.86,19.59-3.86s13.2,1.33,19.59,4c6.39,2.67,12.25,6.67,17.58,12.01,6.86,6.86,11.51,14.61,13.94,23.23,1.96,6.96,2.45,13.9,1.46,20.83-.38,2.71-2.98,4.52-5.65,3.92l-11.91-2.67c-2.36-.53-3.89-2.77-3.59-5.16.48-3.84.18-7.67-.9-11.48-1.48-5.2-4.31-9.89-8.51-14.08-3.14-3.14-6.63-5.48-10.44-7.01-3.81-1.53-7.7-2.26-11.65-2.22-3.96.05-7.86.86-11.72,2.43-3.86,1.57-7.36,3.93-10.51,7.08-3.15,3.15-5.5,6.65-7.08,10.51-1.57,3.86-2.36,7.74-2.36,11.65,0,3.91.79,7.79,2.36,11.65,1.57,3.86,3.93,7.36,7.08,10.51,4.67,4.67,10.1,7.63,16.3,8.86,4.65.93,9.21.76,13.7-.51,2.51-.71,5.12.64,5.85,3.14l3.35,11.5Z"/>
        <path class="cls-1" d="M19.41,39.52c2.5.73,3.85,3.35,3.14,5.85-1.27,4.49-1.44,9.05-.51,13.7,1.24,6.2,4.2,11.63,8.86,16.3,3.15,3.15,6.65,5.5,10.51,7.08,3.86,1.57,7.75,2.36,11.65,2.36,3.91,0,7.79-.79,11.65-2.36,3.86-1.57,7.36-3.93,10.51-7.08,3.14-3.14,5.5-6.65,7.08-10.51,1.57-3.86,2.38-7.77,2.43-11.72.05-3.95-.69-7.84-2.22-11.65-1.52-3.81-3.86-7.29-7.01-10.44-4.19-4.19-8.89-7.03-14.08-8.51-3.81-1.08-7.64-1.38-11.48-.9-2.4.3-4.64-1.23-5.16-3.59l-2.67-11.91c-.6-2.67,1.22-5.26,3.92-5.65C52.96-.49,59.9,0,66.86,1.96c8.62,2.43,16.37,7.08,23.23,13.94,5.34,5.34,9.34,11.2,12.01,17.58,2.67,6.39,4,12.91,4,19.59,0,6.67-1.29,13.2-3.86,19.59-2.57,6.39-6.53,12.25-11.87,17.58-5.24,5.24-11.1,9.2-17.58,11.87-6.48,2.67-13.03,3.98-19.66,3.93-6.62-.05-13.15-1.38-19.59-4-6.43-2.62-12.32-6.6-17.65-11.94-7.43-7.43-12.27-16.03-14.51-25.8-1.9-8.27-1.66-16.56.72-24.87.72-2.51,3.3-3.98,5.81-3.25l11.5,3.35Z"/>
      </g>
      <circle class="cls-2" cx="109.91" cy="109.91" r="17.23"/>
      <g>
        <path class="cls-1" d="M211.92,36.16c2.5-.73,5.09.75,5.81,3.25,2.38,8.31,2.61,16.6.72,24.87-2.24,9.77-7.08,18.37-14.51,25.8-5.34,5.34-11.22,9.32-17.65,11.94-6.43,2.62-12.96,3.96-19.59,4-6.63.05-13.18-1.26-19.66-3.93-6.48-2.67-12.34-6.62-17.58-11.87-5.34-5.34-9.29-11.2-11.87-17.58-2.57-6.38-3.86-12.91-3.86-19.59s1.33-13.2,4-19.59c2.67-6.39,6.67-12.25,12.01-17.58,6.86-6.86,14.61-11.51,23.23-13.94C159.93,0,166.87-.49,173.8.49c2.71.38,4.52,2.98,3.92,5.65l-2.67,11.91c-.53,2.36-2.77,3.89-5.16,3.59-3.84-.48-7.67-.18-11.48.9-5.2,1.48-9.89,4.31-14.08,8.51-3.14,3.14-5.48,6.63-7.01,10.44-1.53,3.81-2.26,7.7-2.22,11.65.05,3.96.86,7.86,2.43,11.72,1.57,3.86,3.93,7.36,7.08,10.51,3.15,3.15,6.65,5.5,10.51,7.08,3.86,1.57,7.74,2.36,11.65,2.36,3.91,0,7.79-.79,11.65-2.36,3.86-1.57,7.36-3.93,10.51-7.08,4.67-4.67,7.63-10.1,8.86-16.3.93-4.65.76-9.21-.51-13.7-.71-2.51.64-5.12,3.14-5.85l11.5-3.35Z"/>
        <path class="cls-1" d="M39.52,200.42c.73-2.5,3.35-3.85,5.85-3.14,4.49,1.27,9.05,1.44,13.7.51,6.2-1.24,11.63-4.2,16.3-8.86,3.15-3.15,5.5-6.65,7.08-10.51,1.57-3.86,2.36-7.75,2.36-11.65,0-3.91-.79-7.79-2.36-11.65-1.57-3.86-3.93-7.36-7.08-10.51-3.14-3.14-6.65-5.5-10.51-7.08-3.86-1.57-7.77-2.38-11.72-2.43-3.95-.05-7.84.69-11.65,2.22-3.81,1.52-7.29,3.86-10.44,7.01-4.19,4.19-7.03,8.89-8.51,14.08-1.08,3.81-1.38,7.64-.9,11.48.3,2.4-1.23,4.64-3.59,5.16l-11.91,2.67c-2.67.6-5.26-1.22-5.65-3.92-.99-6.93-.5-13.87,1.46-20.83,2.43-8.62,7.08-16.37,13.94-23.23,5.34-5.34,11.2-9.34,17.58-12.01,6.39-2.67,12.91-4,19.59-4,6.67,0,13.2,1.29,19.59,3.86,6.39,2.57,12.25,6.53,17.58,11.87,5.24,5.24,9.2,11.1,11.87,17.58,2.67,6.48,3.98,13.03,3.93,19.66-.05,6.62-1.38,13.15-4,19.59-2.62,6.43-6.6,12.32-11.94,17.65-7.43,7.43-16.03,12.27-25.8,14.51-8.27,1.9-16.56,1.66-24.87-.72-2.51-.72-3.98-3.3-3.25-5.81l3.35-11.5Z"/>
      </g>
    </g>
  </g>
</svg>