<?xml version="1.0" encoding="UTF-8"?>
<svg id="Capa_2" data-name="Capa 2" xmlns="http://www.w3.org/2000/svg" xmlns:xlink="http://www.w3.org/1999/xlink" viewBox="0 0 1269.75 219.71">
  <defs>
    <style>
      .cls-1 {
        fill: url(#Degradado_sin_nombre_12-3);
      }

      .cls-2 {
        fill: url(#Degradado_sin_nombre_12-4);
      }

      .cls-3 {
        fill: #114c5a;
      }

      .cls-4 {
        fill: url(#Degradado_sin_nombre_12-5);
      }

      .cls-5 {
        fill: url(#Degradado_sin_nombre_12-2);
      }

      .cls-6 {
        fill: url(#Degradado_sin_nombre_12-6);
      }

      .cls-7 {
        fill: url(#Degradado_sin_nombre_12);
      }
    </style>
    <linearGradient id="Degradado_sin_nombre_12" data-name="Degradado sin nombre 12" x1="1343.3" y1="156.24" x2="822.68" y2="122.46" gradientUnits="userSpaceOnUse">
      <stop offset="0" stop-color="#ffc801"/>
      <stop offset="1" stop-color="#fe9932"/>
    </linearGradient>
    <linearGradient id="Degradado_sin_nombre_12-2" data-name="Degradado sin nombre 12" x1="1343.77" y1="149.02" x2="823.15" y2="115.23" xlink:href="#Degradado_sin_nombre_12"/>
    <linearGradient id="Degradado_sin_nombre_12-3" data-name="Degradado sin nombre 12" x1="1345.18" y1="127.27" x2="824.56" y2="93.49" xlink:href="#Degradado_sin_nombre_12"/>
    <linearGradient id="Degradado_sin_nombre_12-4" data-name="Degradado sin nombre 12" x1="1343.28" y1="156.56" x2="822.66" y2="122.78" xlink:href="#Degradado_sin_nombre_12"/>
    <linearGradient id="Degradado_sin_nombre_12-5" data-name="Degradado sin nombre 12" x1="1345.72" y1="118.88" x2="825.11" y2="85.09" xlink:href="#Degradado_sin_nombre_12"/>
    <linearGradient id="Degradado_sin_nombre_12-6" data-name="Degradado sin nombre 12" x1="1341.12" y1="189.8" x2="820.5" y2="156.02" xlink:href="#Degradado_sin_nombre_12"/>
  </defs>
  <g id="Capa_1" data-name="Capa 1">
    <g>
      <g>
        <path class="cls-3" d="M432.37,132.53c-2.06,5.43-4.86,10.37-8.38,14.81-3.53,4.45-7.63,8.25-12.29,11.39-4.67,3.15-9.8,5.59-15.38,7.33-5.59,1.73-11.48,2.6-17.66,2.6-8.25,0-15.93-1.52-23.04-4.56-7.11-3.04-13.27-7.19-18.48-12.45-5.21-5.26-9.31-11.5-12.29-18.72-2.99-7.22-4.48-15.06-4.48-23.52s1.49-16.09,4.48-23.2c2.98-7.11,7.08-13.29,12.29-18.56,5.21-5.26,11.37-9.39,18.48-12.37,7.11-2.98,14.79-4.48,23.04-4.48,11.39,0,21.54,2.71,30.44,8.14,8.9,5.43,15.79,12.7,20.67,21.81l-14.65,8.63c-1.74-3.15-3.83-6.1-6.27-8.87-2.44-2.77-5.21-5.18-8.3-7.24-3.09-2.06-6.49-3.66-10.17-4.8-3.69-1.14-7.6-1.71-11.72-1.71-6.19,0-11.86,1.17-17.01,3.5-5.16,2.34-9.6,5.45-13.35,9.36-3.74,3.91-6.65,8.44-8.71,13.59-2.06,5.16-3.09,10.56-3.09,16.2s1.03,11.26,3.09,16.52c2.06,5.27,4.96,9.88,8.71,13.84,3.74,3.96,8.19,7.11,13.35,9.44,5.15,2.33,10.82,3.5,17.01,3.5,4.45,0,8.63-.65,12.53-1.95,3.91-1.3,7.46-3.12,10.66-5.45,3.2-2.33,6-5.07,8.38-8.22,2.39-3.15,4.34-6.51,5.86-10.09l16.28,5.53Z"/>
        <path class="cls-3" d="M475.83,168.18c-6.08,0-11.7-1.09-16.85-3.26-5.16-2.17-9.63-5.13-13.43-8.87-3.8-3.74-6.78-8.22-8.95-13.43-2.17-5.21-3.26-10.8-3.26-16.77s1.08-11.67,3.26-16.77c2.17-5.1,5.15-9.55,8.95-13.35,3.8-3.8,8.28-6.76,13.43-8.87,5.15-2.12,10.77-3.17,16.85-3.17s11.67,1.06,16.77,3.17c5.1,2.12,9.55,5.07,13.35,8.87,3.8,3.8,6.76,8.25,8.87,13.35,2.12,5.1,3.17,10.69,3.17,16.77s-1.06,11.56-3.17,16.77c-2.12,5.21-5.07,9.69-8.87,13.43-3.8,3.74-8.25,6.7-13.35,8.87-5.1,2.17-10.69,3.26-16.77,3.26ZM475.83,153.53c3.8,0,7.35-.7,10.66-2.12,3.31-1.41,6.19-3.36,8.63-5.86,2.44-2.49,4.34-5.4,5.7-8.71,1.35-3.31,2.03-6.92,2.03-10.82s-.71-7.54-2.12-10.91c-1.41-3.36-3.34-6.29-5.78-8.79-2.44-2.49-5.29-4.45-8.55-5.86-3.26-1.41-6.78-2.12-10.58-2.12s-7.52.71-10.83,2.12c-3.31,1.41-6.19,3.37-8.63,5.86-2.44,2.5-4.37,5.43-5.78,8.79-1.41,3.37-2.12,7-2.12,10.91s.71,7.54,2.12,10.91c1.41,3.37,3.34,6.27,5.78,8.71,2.44,2.44,5.32,4.37,8.63,5.78,3.31,1.41,6.92,2.12,10.83,2.12Z"/>
        <path class="cls-3" d="M561.62,168.18c-6.08,0-11.7-1.09-16.85-3.26-5.16-2.17-9.63-5.13-13.43-8.87-3.8-3.74-6.78-8.22-8.95-13.43-2.17-5.21-3.26-10.8-3.26-16.77s1.08-11.67,3.26-16.77c2.17-5.1,5.15-9.55,8.95-13.35,3.8-3.8,8.27-6.76,13.43-8.87,5.15-2.12,10.77-3.17,16.85-3.17s11.67,1.06,16.77,3.17c5.1,2.12,9.55,5.07,13.35,8.87,3.8,3.8,6.76,8.25,8.87,13.35,2.12,5.1,3.17,10.69,3.17,16.77s-1.06,11.56-3.17,16.77c-2.12,5.21-5.07,9.69-8.87,13.43-3.8,3.74-8.25,6.7-13.35,8.87-5.1,2.17-10.69,3.26-16.77,3.26ZM561.62,153.53c3.8,0,7.35-.7,10.66-2.12,3.31-1.41,6.19-3.36,8.63-5.86,2.44-2.49,4.34-5.4,5.7-8.71,1.36-3.31,2.03-6.92,2.03-10.82s-.71-7.54-2.12-10.91c-1.41-3.36-3.34-6.29-5.78-8.79-2.44-2.49-5.29-4.45-8.55-5.86-3.26-1.41-6.78-2.12-10.58-2.12s-7.52.71-10.82,2.12c-3.31,1.41-6.19,3.37-8.63,5.86-2.44,2.5-4.37,5.43-5.78,8.79-1.41,3.37-2.12,7-2.12,10.91s.7,7.54,2.12,10.91c1.41,3.37,3.34,6.27,5.78,8.71,2.44,2.44,5.32,4.37,8.63,5.78,3.31,1.41,6.92,2.12,10.82,2.12Z"/>
        <path class="cls-3" d="M623.97,199.28h-15.95v-113.95h15.95v13.02c6.29-10.09,16.71-15.14,31.26-15.14,5.86,0,11.34,1.11,16.44,3.34,5.1,2.23,9.52,5.29,13.27,9.2,3.74,3.91,6.67,8.52,8.79,13.84,2.12,5.32,3.17,11.07,3.17,17.26s-1.06,11.67-3.17,16.77c-2.12,5.1-5.05,9.52-8.79,13.27-3.74,3.74-8.14,6.67-13.19,8.79-5.05,2.12-10.56,3.17-16.52,3.17-6.95,0-13.24-1.3-18.88-3.91-5.64-2.6-9.77-6.19-12.37-10.74v45.09ZM652.63,155.32c4.12,0,7.89-.73,11.31-2.2,3.42-1.47,6.37-3.47,8.87-6.02,2.49-2.55,4.45-5.56,5.86-9.03,1.41-3.47,2.12-7.27,2.12-11.4s-.71-7.95-2.12-11.48c-1.41-3.53-3.39-6.57-5.94-9.12-2.55-2.55-5.53-4.56-8.95-6.02-3.42-1.47-7.14-2.2-11.15-2.2s-7.76.73-11.23,2.2c-3.47,1.47-6.51,3.5-9.12,6.1-2.6,2.6-4.64,5.64-6.1,9.12-1.47,3.47-2.2,7.27-2.2,11.39s.73,7.79,2.2,11.31c1.47,3.53,3.47,6.57,6.02,9.12,2.55,2.55,5.59,4.56,9.12,6.02,3.53,1.47,7.3,2.2,11.31,2.2Z"/>
        <path class="cls-3" d="M778.46,120.97c.22,2.06.35,4.04.41,5.94.05,1.9.02,3.72-.08,5.45l-64.3-.16c.43,3.26,1.38,6.24,2.85,8.95,1.47,2.71,3.31,5.07,5.53,7.08,2.22,2.01,4.8,3.56,7.73,4.64,2.93,1.09,6.13,1.63,9.6,1.63,4.99,0,9.55-.9,13.67-2.69,4.12-1.79,7.38-4.21,9.77-7.24l9.93,9.44c-3.69,4.45-8.44,8-14.24,10.66-5.81,2.66-11.96,3.99-18.48,3.99-5.97,0-11.48-1.03-16.52-3.09-5.05-2.06-9.36-4.96-12.94-8.71-3.58-3.74-6.38-8.19-8.38-13.35-2.01-5.15-3.01-10.82-3.01-17.01s.95-12.21,2.85-17.42c1.9-5.21,4.58-9.66,8.06-13.35,3.47-3.69,7.65-6.57,12.53-8.63,4.88-2.06,10.31-3.09,16.28-3.09,5.32,0,10.23.9,14.73,2.69,4.5,1.79,8.44,4.31,11.8,7.57,3.36,3.26,6.1,7.16,8.22,11.72,2.12,4.56,3.44,9.55,3.99,14.98ZM763.16,120.97c-1.09-6.84-3.66-12.32-7.73-16.44-4.07-4.12-9.36-6.19-15.87-6.19-3.8,0-7.14.6-10.01,1.79-2.88,1.2-5.32,2.8-7.33,4.8-2.01,2.01-3.61,4.4-4.8,7.16-1.2,2.77-2.01,5.73-2.44,8.87h48.19Z"/>
        <path class="cls-3" d="M832.34,100.3c-2.39-.33-4.67-.49-6.84-.49-3.8,0-7.3.52-10.5,1.55-3.2,1.03-5.97,2.44-8.3,4.23-2.34,1.79-4.15,3.96-5.45,6.51-1.3,2.55-1.95,5.4-1.95,8.55v46.07h-16.12v-81.39h16.12v11.88c1.3-2.82,3.2-5.15,5.7-7,2.49-1.84,5.26-3.28,8.3-4.31,3.04-1.03,6.21-1.68,9.52-1.95,3.31-.27,6.48-.24,9.52.08v16.28Z"/>
        <path class="cls-7" d="M902.18,154.18c-2.6,4.56-6.73,8.14-12.37,10.74-5.64,2.6-11.88,3.91-18.72,3.91-6.08,0-11.67-1.06-16.77-3.17-5.1-2.12-9.5-5.05-13.19-8.79-3.69-3.74-6.57-8.19-8.63-13.35-2.06-5.15-3.09-10.72-3.09-16.68s1.03-11.61,3.09-16.93c2.06-5.32,4.94-9.96,8.63-13.92,3.69-3.96,8.08-7.08,13.19-9.36,5.1-2.28,10.69-3.42,16.77-3.42,14.65,0,25.01,5.05,31.09,15.14v-13.02h16.12v81.39h-16.12v-12.53ZM873.69,155.32c4.01,0,7.76-.73,11.23-2.2,3.47-1.47,6.48-3.47,9.03-6.02,2.55-2.55,4.56-5.56,6.02-9.03,1.47-3.47,2.2-7.27,2.2-11.4s-.73-7.95-2.2-11.48c-1.47-3.53-3.47-6.57-6.02-9.12-2.55-2.55-5.56-4.56-9.03-6.02-3.48-1.47-7.22-2.2-11.23-2.2s-7.76.73-11.23,2.2c-3.47,1.47-6.49,3.48-9.03,6.02-2.55,2.55-4.53,5.59-5.94,9.12-1.41,3.53-2.12,7.35-2.12,11.48s.7,7.95,2.12,11.48c1.41,3.53,3.39,6.57,5.94,9.12,2.55,2.55,5.56,4.53,9.03,5.94,3.47,1.41,7.22,2.12,11.23,2.12Z"/>
        <path class="cls-5" d="M970.71,83.86c5.97,0,11.07,1.22,15.3,3.66,4.23,2.44,7.49,6.59,9.77,12.45,2.39-5.53,6.1-9.6,11.15-12.21,5.05-2.6,11.26-3.91,18.64-3.91,5.32,0,9.98.81,14,2.44,4.01,1.63,7.35,3.96,10.01,7,2.66,3.04,4.64,6.65,5.94,10.82,1.3,4.18,1.95,8.87,1.95,14.08v48.51h-15.95v-46.07c0-7.6-1.52-13.29-4.56-17.09-3.04-3.8-7.98-5.7-14.81-5.7-13.89.22-20.84,7.81-20.84,22.79v46.07h-16.12v-46.07c0-7.81-1.58-13.57-4.72-17.26-3.15-3.69-7.98-5.53-14.49-5.53-6.84.11-12.05,2.09-15.63,5.94-3.58,3.85-5.37,9.47-5.37,16.85v46.07h-15.95v-81.39h15.95v10.26c2.39-3.8,5.8-6.7,10.26-8.71,4.45-2.01,9.6-3.01,15.46-3.01Z"/>
        <path class="cls-1" d="M1068.38,52.77h15.95v14.65h-15.95v-14.65ZM1068.38,85.49h15.95v81.39h-15.95v-81.39Z"/>
        <path class="cls-2" d="M1179.08,161.83c0,5.97-1.09,11.5-3.26,16.61-2.17,5.1-5.21,9.49-9.12,13.19-3.91,3.69-8.55,6.59-13.92,8.71-5.37,2.12-11.26,3.17-17.66,3.17-8.46,0-16.09-1.49-22.87-4.48-6.78-2.99-12.45-7.3-17.01-12.94l10.74-11.72c7.49,8.68,17.26,13.02,29.3,13.02,4.12,0,7.84-.62,11.15-1.87,3.31-1.25,6.19-2.99,8.63-5.21,2.44-2.23,4.37-4.91,5.78-8.06,1.41-3.15,2.17-6.67,2.28-10.58v-8.79c-3.04,5.1-6.89,8.95-11.56,11.56-4.67,2.6-10.64,3.91-17.91,3.91-5.97,0-11.48-1.09-16.52-3.26-5.05-2.17-9.44-5.15-13.19-8.95-3.74-3.8-6.67-8.3-8.79-13.51-2.12-5.21-3.17-10.85-3.17-16.93s1.06-11.69,3.17-16.85c2.12-5.15,5.02-9.63,8.71-13.43,3.69-3.8,8.08-6.78,13.19-8.95,5.1-2.17,10.64-3.26,16.6-3.26s11.94,1.36,17.26,4.07c5.32,2.71,9.39,6.41,12.21,11.07v-13.02h16.12l-.16,76.51ZM1136.26,153.7c4.01,0,7.65-.7,10.91-2.12,3.26-1.41,6.05-3.34,8.38-5.78,2.33-2.44,4.12-5.34,5.37-8.71,1.25-3.36,1.87-7,1.87-10.91s-.63-7.73-1.87-11.15c-1.25-3.42-3.04-6.4-5.37-8.95-2.34-2.55-5.13-4.53-8.38-5.94-3.26-1.41-6.89-2.12-10.91-2.12s-7.92.71-11.39,2.12c-3.47,1.41-6.46,3.37-8.95,5.86-2.5,2.5-4.45,5.45-5.86,8.87-1.41,3.42-2.12,7.19-2.12,11.31s.7,7.71,2.12,11.07c1.41,3.37,3.39,6.27,5.94,8.71,2.55,2.44,5.56,4.34,9.03,5.7,3.47,1.36,7.22,2.03,11.23,2.03Z"/>
        <path class="cls-4" d="M1227.59,168.18c-6.08,0-11.69-1.09-16.85-3.26-5.16-2.17-9.63-5.13-13.43-8.87-3.8-3.74-6.78-8.22-8.95-13.43-2.17-5.21-3.26-10.8-3.26-16.77s1.08-11.67,3.26-16.77c2.17-5.1,5.15-9.55,8.95-13.35,3.8-3.8,8.27-6.76,13.43-8.87,5.15-2.12,10.77-3.17,16.85-3.17s11.67,1.06,16.77,3.17c5.1,2.12,9.55,5.07,13.35,8.87,3.8,3.8,6.76,8.25,8.87,13.35,2.12,5.1,3.17,10.69,3.17,16.77s-1.06,11.56-3.17,16.77c-2.12,5.21-5.07,9.69-8.87,13.43-3.8,3.74-8.25,6.7-13.35,8.87-5.1,2.17-10.69,3.26-16.77,3.26ZM1227.59,153.53c3.8,0,7.35-.7,10.66-2.12,3.31-1.41,6.19-3.36,8.63-5.86,2.44-2.49,4.34-5.4,5.7-8.71,1.36-3.31,2.03-6.92,2.03-10.82s-.71-7.54-2.12-10.91c-1.41-3.36-3.34-6.29-5.78-8.79-2.44-2.49-5.29-4.45-8.55-5.86-3.26-1.41-6.78-2.12-10.58-2.12s-7.52.71-10.82,2.12c-3.31,1.41-6.19,3.37-8.63,5.86-2.44,2.5-4.37,5.43-5.78,8.79-1.41,3.37-2.12,7-2.12,10.91s.7,7.54,2.12,10.91c1.41,3.37,3.34,6.27,5.78,8.71,2.44,2.44,5.32,4.37,8.63,5.78,3.31,1.41,6.92,2.12,10.82,2.12ZM1244.19,55.21l-9.12,17.91h-15.3l8.46-17.91h15.95Z"/>
      </g>
      <g>
        <g>
          <path class="cls-3" d="M183.67,211.92c.73,2.5-.75,5.09-3.25,5.81-8.31,2.38-16.6,2.61-24.87.72-9.77-2.24-18.37-7.08-25.8-14.51-5.34-5.34-9.32-11.22-11.94-17.65-2.62-6.43-3.96-12.96-4-19.59-.05-6.63,1.26-13.18,3.93-19.66,2.67-6.48,6.62-12.34,11.87-17.58,5.34-5.34,11.2-9.29,17.58-11.87,6.38-2.57,12.91-3.86,19.59-3.86s13.2,1.33,19.59,4c6.39,2.67,12.25,6.67,17.58,12.01,6.86,6.86,11.51,14.61,13.94,23.23,1.96,6.96,2.45,13.9,1.46,20.83-.38,2.71-2.98,4.52-5.65,3.92l-11.91-2.67c-2.36-.53-3.89-2.77-3.59-5.16.48-3.84.18-7.67-.9-11.48-1.48-5.2-4.31-9.89-8.51-14.08-3.14-3.14-6.63-5.48-10.44-7.01-3.81-1.53-7.7-2.26-11.65-2.22-3.96.05-7.86.86-11.72,2.43-3.86,1.57-7.36,3.93-10.51,7.08-3.15,3.15-5.5,6.65-7.08,10.51-1.57,3.86-2.36,7.74-2.36,11.65,0,3.91.79,7.79,2.36,11.65,1.57,3.86,3.93,7.36,7.08,10.51,4.67,4.67,10.1,7.63,16.3,8.86,4.65.93,9.21.76,13.7-.51,2.51-.71,5.12.64,5.85,3.14l3.35,11.5Z"/>
          <path class="cls-3" d="M19.41,39.52c2.5.73,3.85,3.35,3.14,5.85-1.27,4.49-1.44,9.05-.51,13.7,1.24,6.2,4.2,11.63,8.86,16.3,3.15,3.15,6.65,5.5,10.51,7.08,3.86,1.57,7.75,2.36,11.65,2.36,3.91,0,7.79-.79,11.65-2.36,3.86-1.57,7.36-3.93,10.51-7.08,3.14-3.14,5.5-6.65,7.08-10.51,1.57-3.86,2.38-7.77,2.43-11.72.05-3.95-.69-7.84-2.22-11.65-1.52-3.81-3.86-7.29-7.01-10.44-4.19-4.19-8.89-7.03-14.08-8.51-3.81-1.08-7.64-1.38-11.48-.9-2.4.3-4.64-1.23-5.16-3.59l-2.67-11.91c-.6-2.67,1.22-5.26,3.92-5.65C52.96-.49,59.9,0,66.86,1.96c8.62,2.43,16.37,7.08,23.23,13.94,5.34,5.34,9.34,11.2,12.01,17.58,2.67,6.39,4,12.91,4,19.59,0,6.67-1.29,13.2-3.86,19.59-2.57,6.39-6.53,12.25-11.87,17.58-5.24,5.24-11.1,9.2-17.58,11.87-6.48,2.67-13.03,3.98-19.66,3.93-6.62-.05-13.15-1.38-19.59-4-6.43-2.62-12.32-6.6-17.65-11.94-7.43-7.43-12.27-16.03-14.51-25.8-1.9-8.27-1.66-16.56.72-24.87.72-2.51,3.3-3.98,5.81-3.25l11.5,3.35Z"/>
        </g>
        <circle class="cls-6" cx="109.91" cy="109.91" r="17.23"/>
        <g>
          <path class="cls-3" d="M211.92,36.16c2.5-.73,5.09.75,5.81,3.25,2.38,8.31,2.61,16.6.72,24.87-2.24,9.77-7.08,18.37-14.51,25.8-5.34,5.34-11.22,9.32-17.65,11.94-6.43,2.62-12.96,3.96-19.59,4-6.63.05-13.18-1.26-19.66-3.93-6.48-2.67-12.34-6.62-17.58-11.87-5.34-5.34-9.29-11.2-11.87-17.58-2.57-6.38-3.86-12.91-3.86-19.59s1.33-13.2,4-19.59c2.67-6.39,6.67-12.25,12.01-17.58,6.86-6.86,14.61-11.51,23.23-13.94C159.93,0,166.87-.49,173.8.49c2.71.38,4.52,2.98,3.92,5.65l-2.67,11.91c-.53,2.36-2.77,3.89-5.16,3.59-3.84-.48-7.67-.18-11.48.9-5.2,1.48-9.89,4.31-14.08,8.51-3.14,3.14-5.48,6.63-7.01,10.44-1.53,3.81-2.26,7.7-2.22,11.65.05,3.96.86,7.86,2.43,11.72,1.57,3.86,3.93,7.36,7.08,10.51,3.15,3.15,6.65,5.5,10.51,7.08,3.86,1.57,7.74,2.36,11.65,2.36,3.91,0,7.79-.79,11.65-2.36,3.86-1.57,7.36-3.93,10.51-7.08,4.67-4.67,7.63-10.1,8.86-16.3.93-4.65.76-9.21-.51-13.7-.71-2.51.64-5.12,3.14-5.85l11.5-3.35Z"/>
          <path class="cls-3" d="M39.52,200.42c.73-2.5,3.35-3.85,5.85-3.14,4.49,1.27,9.05,1.44,13.7.51,6.2-1.24,11.63-4.2,16.3-8.86,3.15-3.15,5.5-6.65,7.08-10.51,1.57-3.86,2.36-7.75,2.36-11.65,0-3.91-.79-7.79-2.36-11.65-1.57-3.86-3.93-7.36-7.08-10.51-3.14-3.14-6.65-5.5-10.51-7.08-3.86-1.57-7.77-2.38-11.72-2.43-3.95-.05-7.84.69-11.65,2.22-3.81,1.52-7.29,3.86-10.44,7.01-4.19,4.19-7.03,8.89-8.51,14.08-1.08,3.81-1.38,7.64-.9,11.48.3,2.4-1.23,4.64-3.59,5.16l-11.91,2.67c-2.67.6-5.26-1.22-5.65-3.92-.99-6.93-.5-13.87,1.46-20.83,2.43-8.62,7.08-16.37,13.94-23.23,5.34-5.34,11.2-9.34,17.58-12.01,6.39-2.67,12.91-4,19.59-4,6.67,0,13.2,1.29,19.59,3.86,6.39,2.57,12.25,6.53,17.58,11.87,5.24,5.24,9.2,11.1,11.87,17.58,2.67,6.48,3.98,13.03,3.93,19.66-.05,6.62-1.38,13.15-4,19.59-2.62,6.43-6.6,12.32-11.94,17.65-7.43,7.43-16.03,12.27-25.8,14.51-8.27,1.9-16.56,1.66-24.87-.72-2.51-.72-3.98-3.3-3.25-5.81l3.35-11.5Z"/>
        </g>
      </g>
    </g>
  </g>
</svg>